<svg xmlns="http://www.w3.org/2000/svg" width="420" height="580" viewBox="0 0 420 580" font-family="'PingFang SC','Microsoft YaHei',sans-serif">
  <defs>
    <linearGradient id="bg3" x1="0" y1="0" x2="1" y2="1">
      <stop offset="0" stop-color="#722ED1"/>
      <stop offset="0.55" stop-color="#531BB0"/>
      <stop offset="1" stop-color="#2E0C66"/>
    </linearGradient>
    <radialGradient id="glow3" cx="0.8" cy="0.15" r="0.8">
      <stop offset="0" stop-color="#C79BFF" stop-opacity="0.5"/>
      <stop offset="1" stop-color="#C79BFF" stop-opacity="0"/>
    </radialGradient>
    <linearGradient id="spine3" x1="0" y1="0" x2="1" y2="0">
      <stop offset="0" stop-color="#000000" stop-opacity="0.35"/>
      <stop offset="1" stop-color="#000000" stop-opacity="0"/>
    </linearGradient>
  </defs>

  <rect x="0" y="0" width="420" height="580" fill="url(#bg3)"/>
  <rect x="0" y="0" width="22" height="580" fill="url(#spine3)"/>
  <rect x="0" y="0" width="10" height="580" fill="#000000" opacity="0.18"/>
  <rect x="0" y="0" width="420" height="580" fill="url(#glow3)"/>

  <!-- 装饰：网络拓扑 / 地球经纬 -->
  <g stroke="#E3CCFF" stroke-opacity="0.55" stroke-width="2" fill="none">
    <circle cx="280" cy="430" r="60"/>
    <ellipse cx="280" cy="430" rx="60" ry="22"/>
    <ellipse cx="280" cy="430" rx="26" ry="60"/>
    <line x1="220" y1="430" x2="340" y2="430"/>
  </g>
  <g stroke="#E3CCFF" stroke-opacity="0.5" stroke-width="1.8">
    <line x1="130" y1="470" x2="220" y2="430"/>
    <line x1="340" y1="430" x2="300" y2="500"/>
    <line x1="160" y1="390" x2="220" y2="430"/>
  </g>
  <g fill="#E3CCFF">
    <circle cx="130" cy="470" r="6"/>
    <circle cx="160" cy="390" r="6"/>
    <circle cx="300" cy="500" r="6"/>
    <circle cx="280" cy="430" r="7" fill="#FFFFFF"/>
  </g>
  <g fill="#E3CCFF" fill-opacity="0.85" font-family="monospace" font-size="18">
    <text x="55" y="150">TCP</text>
    <text x="300" y="180" fill="#C79BFF">/IP</text>
  </g>

  <text x="42" y="64" fill="#F3E9FF" font-size="14" letter-spacing="1" opacity="0.92">普通高等教育 · 计算机类精品教材</text>
  <line x1="42" y1="78" x2="300" y2="78" stroke="#F3E9FF" stroke-opacity="0.5" stroke-width="1"/>

  <text x="40" y="250" fill="#FFFFFF" font-size="52" font-weight="800">计算机网络</text>
  <rect x="42" y="276" width="64" height="6" rx="3" fill="#FF7D00"/>
  <text x="42" y="310" fill="#E3CCFF" font-size="18" font-weight="600">自顶向下 · 协议栈与网络安全</text>

  <text x="42" y="500" fill="#F3E9FF" font-size="15" opacity="0.9">课程代码 CS301</text>
  <text x="42" y="528" fill="#FFFFFF" font-size="16" font-weight="600">主编　李　慧</text>
  <text x="42" y="556" fill="#E3CCFF" font-size="13" opacity="0.85">ProgramMind 教育出品 · 高等教育出版社</text>
</svg>
